<svg width="203" height="46" viewBox="0 0 203 46" fill="none" xmlns="http://www.w3.org/2000/svg">
<g clip-path="url(#clip0_5944_79300)">
<path d="M30.5072 34.0917L15.2769 11.9082L0 34.0917H21.2842L15.2769 25.6253L12.297 30.0244H9.12994L15.2789 21.1797L24.168 34.0927L30.5072 34.0917Z" fill="url(#paint0_linear_5944_79300)"/>
<path d="M43.2644 22.8511C43.0908 22.8511 43.0163 22.9255 43.0163 23.0991V24.5875C43.0163 24.7612 43.0908 24.8356 43.2644 24.8356H48.201V27.4445C47.6632 28.2689 46.9155 28.9352 46.0347 29.3748C45.154 29.8144 44.1721 30.0115 43.19 29.9458C39.4938 29.9458 37.2115 27.5685 37.2115 22.9999C37.2115 18.4603 39.8907 16.054 42.9419 16.054C45.3192 16.054 47.2583 16.9967 47.8785 19.2789C47.8889 19.3496 47.925 19.414 47.9799 19.4598C48.0348 19.5056 48.1047 19.5295 48.1762 19.527H49.7597C49.9333 19.527 50.0325 19.4525 50.0325 19.2789C49.3627 15.8059 46.3859 14.0695 42.9378 14.0695C39.0679 14.0695 35.0244 17.0463 35.0244 22.9999C35.0244 28.8791 38.8488 31.9304 43.2851 31.9304C44.623 31.971 45.9484 31.6631 47.1314 31.0369C48.3143 30.4106 49.3141 29.4875 50.0325 28.3582C50.21 28.0769 50.2967 27.7478 50.2806 27.4155V23.1033C50.2806 22.9296 50.2062 22.8552 50.0325 22.8552L43.2644 22.8511ZM69.0139 14.5656C69.0139 14.3919 68.9394 14.3175 68.7658 14.3175H66.4091C66.3249 14.3091 66.2401 14.3289 66.1683 14.3738C66.0965 14.4186 66.0416 14.4861 66.0122 14.5656L61.1997 25.6046L56.3872 14.5656C56.3579 14.4861 56.303 14.4186 56.2311 14.3738C56.1593 14.3289 56.0746 14.3091 55.9903 14.3175H53.6336C53.46 14.3175 53.3856 14.3919 53.3856 14.5656V31.4342C53.3856 31.6079 53.46 31.6823 53.6336 31.6823H55.2213C55.3949 31.6823 55.4693 31.6079 55.4693 31.4342V17.5672L60.3273 28.5566C60.3517 28.6224 60.3957 28.6791 60.4534 28.7191C60.5111 28.759 60.5797 28.7802 60.6498 28.7799H61.7496C61.8198 28.7802 61.8883 28.759 61.946 28.7191C62.0037 28.6791 62.0477 28.6224 62.0721 28.5566L66.9301 17.5672V31.4342C66.9301 31.6079 67.0045 31.6823 67.1782 31.6823H68.7658C68.9394 31.6823 69.0139 31.6079 69.0139 31.4342V14.5656ZM74.4217 14.5656C74.2481 14.3423 74.2481 14.3175 74.0744 14.3175H72.1643C71.9907 14.3175 71.9163 14.4416 71.9907 14.5656L77.2497 22.5244L71.3457 31.4342C71.2713 31.5583 71.3457 31.6823 71.5193 31.6823H73.3799C73.5535 31.6823 73.6031 31.6575 73.7768 31.4342L78.4942 24.3436L83.2033 31.4342C83.377 31.6575 83.4266 31.6823 83.6003 31.6823H85.4608C85.6344 31.6823 85.7088 31.5583 85.6344 31.4342L79.7345 22.5286L84.9936 14.5697C85.068 14.4457 84.9936 14.3217 84.8199 14.3217H82.9057C82.732 14.3217 82.732 14.3465 82.5584 14.5697L78.4942 20.6929L74.4217 14.5656Z" fill="white"/>
</g>
<path d="M105.997 27.792C105.763 28 105.555 28.1343 105.373 28.195C105.2 28.2643 105.031 28.2557 104.866 28.169C104.701 28.091 104.519 27.9393 104.32 27.714L98.2101 21.006C97.9241 20.7027 97.7767 20.4253 97.7681 20.174C97.7681 19.9227 97.9371 19.641 98.2751 19.329C98.5091 19.1123 98.7127 18.9737 98.8861 18.913C99.0681 18.8437 99.2414 18.8523 99.4061 18.939C99.5794 19.017 99.7614 19.173 99.9521 19.407L106.062 26.128C106.357 26.4487 106.508 26.7303 106.517 26.973C106.526 27.207 106.352 27.48 105.997 27.792ZM98.2881 27.792C97.9414 27.48 97.7681 27.207 97.7681 26.973C97.7767 26.7303 97.9284 26.4487 98.2231 26.128L104.333 19.407C104.532 19.173 104.714 19.017 104.879 18.939C105.044 18.8523 105.213 18.8437 105.386 18.913C105.568 18.9737 105.776 19.1123 106.01 19.329C106.357 19.641 106.526 19.9227 106.517 20.174C106.508 20.4253 106.361 20.7027 106.075 21.006L99.9651 27.714C99.7744 27.9393 99.5924 28.091 99.4191 28.169C99.2544 28.2557 99.0811 28.2643 98.8991 28.195C98.7257 28.1343 98.5221 28 98.2881 27.792Z" fill="white"/>
<path d="M200.81 20.2353C199.917 20.2549 199.024 20.2609 198.131 20.2505C197.929 20.2481 197.874 20.3065 197.874 20.5081C197.881 22.8939 197.878 25.2797 197.878 27.6655C197.878 27.9605 197.878 27.9609 197.584 27.961C197.04 27.9613 196.496 27.952 195.952 27.9657C195.747 27.9709 195.696 27.9056 195.696 27.7063C195.703 25.3275 195.7 22.9487 195.7 20.5698C195.7 20.2553 195.7 20.2551 195.384 20.255C194.588 20.2548 193.793 20.249 192.998 20.259C192.809 20.2614 192.762 20.1993 192.765 20.0197C192.776 19.5107 192.779 19.001 192.764 18.4922C192.758 18.2822 192.833 18.2403 193.027 18.2407C195.609 18.2466 198.19 18.2446 200.79 18.2446C200.81 18.9016 200.81 19.5587 200.81 20.2353Z" fill="white"/>
<path d="M154.363 38.8921C146.637 38.8921 138.931 38.8923 131.226 38.8913C130.821 38.8912 130.868 38.9383 130.868 38.5351C130.867 28.2474 130.867 17.9598 130.868 7.67213C130.868 7.26701 130.821 7.31409 131.224 7.31405C141.526 7.31312 151.827 7.31312 162.129 7.31405C162.534 7.31409 162.487 7.26701 162.487 7.67021C162.488 17.9579 162.488 28.2456 162.487 38.5332C162.487 38.9383 162.534 38.891 162.131 38.8913C159.548 38.8928 156.966 38.8921 154.363 38.8921ZM138.945 18.1213C138.788 18.1469 138.631 18.1718 138.475 18.1982C137.057 18.4372 135.947 19.1699 135.154 20.353C134.44 21.4171 134.174 22.5967 134.379 23.8776C134.575 25.1048 135.151 26.1255 136.092 26.9088C137.284 27.8999 138.671 28.2859 140.211 27.9977C141.422 27.771 142.433 27.1712 143.189 26.2004C144.108 25.0205 144.473 23.6761 144.184 22.1919C143.88 20.6277 143.013 19.4607 141.612 18.7008C140.795 18.2573 139.912 18.0788 138.945 18.1213ZM156.336 26.0281C156.133 26.0716 155.932 26.1402 155.727 26.1543C154.643 26.2292 153.719 25.8957 153.013 25.0414C152.409 24.3111 152.209 23.4631 152.37 22.5488C152.524 21.6789 152.979 20.9777 153.75 20.5126C154.697 19.9411 155.683 19.8681 156.689 20.3377C156.993 20.4797 157.268 20.6846 157.58 20.8755C157.911 20.5428 158.254 20.197 158.598 19.852C158.895 19.5542 158.895 19.5551 158.573 19.2912C157.378 18.3095 156.019 17.9371 154.494 18.2056C153.503 18.38 152.65 18.8358 151.927 19.5307C151.431 20.0074 151.053 20.5652 150.787 21.2034C150.408 22.1119 150.308 23.0534 150.49 24.0101C150.714 25.1858 151.29 26.1673 152.224 26.9366C153.06 27.6259 154.019 28.0074 155.09 28.0802C156.076 28.1472 157.009 27.9185 157.863 27.4168C158.165 27.2388 158.441 27.0126 158.722 26.8004C158.8 26.7418 158.907 26.6653 158.789 26.5462C158.382 26.1363 157.974 25.7273 157.6 25.3519C157.167 25.5849 156.767 25.8005 156.336 26.0281Z" fill="white"/>
<path d="M186.611 22.8098C186.611 23.1518 186.601 23.4733 186.615 23.7937C186.624 23.9818 186.558 24.0287 186.377 24.0279C185.037 24.021 183.697 24.0241 182.357 24.0243C182.047 24.0243 182.047 24.0247 182.046 24.3247C182.046 24.8133 182.054 25.3021 182.042 25.7903C182.038 25.9803 182.093 26.0395 182.287 26.0386C183.858 26.0313 185.428 26.0344 186.999 26.0347C187.28 26.0347 187.281 26.0354 187.281 26.3212C187.282 26.7958 187.276 27.2705 187.284 27.745C187.286 27.9018 187.247 27.9647 187.075 27.9644C184.758 27.9592 182.44 27.9596 180.123 27.9638C179.961 27.9641 179.907 27.918 179.907 27.7513C179.911 24.6523 179.911 21.5533 179.907 18.4543C179.907 18.2874 179.962 18.2416 180.123 18.2419C182.426 18.2461 184.73 18.2465 187.033 18.2413C187.206 18.241 187.244 18.3042 187.242 18.4608C187.235 18.9493 187.231 19.4381 187.243 19.9264C187.248 20.1156 187.193 20.1761 186.999 20.1752C185.442 20.1678 183.886 20.171 182.329 20.1713C182.047 20.1713 182.047 20.172 182.046 20.4573C182.046 20.911 182.046 21.3647 182.047 21.8183C182.047 22.097 182.047 22.0975 182.336 22.0976C183.676 22.0978 185.016 22.1017 186.356 22.0934C186.556 22.0922 186.636 22.1439 186.614 22.3494C186.599 22.4944 186.611 22.6423 186.611 22.8098Z" fill="white"/>
<path d="M165.503 21.9301C165.503 20.7715 165.508 19.634 165.499 18.4965C165.497 18.2927 165.557 18.2354 165.758 18.2401C166.316 18.253 166.874 18.2538 167.433 18.2398C167.641 18.2345 167.687 18.3067 167.685 18.5024C167.677 19.6817 167.681 20.8612 167.681 22.0406C167.681 22.1238 167.681 22.207 167.681 22.3666C167.819 22.2479 167.919 22.176 168.002 22.0872C168.233 21.8376 168.451 21.5766 168.683 21.3282C169.167 20.8095 169.661 20.2993 170.144 19.7793C170.545 19.3469 170.938 18.9065 171.332 18.4672C171.462 18.3224 171.595 18.2327 171.813 18.2377C172.572 18.2553 173.333 18.2445 174.137 18.2445C174.076 18.3461 174.045 18.4296 173.988 18.4883C173.417 19.0796 172.838 19.6634 172.268 20.2562C171.597 20.9536 170.934 21.6579 170.252 22.376C171.611 24.2148 172.975 26.0599 174.362 27.9372C174.264 27.948 174.205 27.9599 174.147 27.96C173.408 27.9613 172.668 27.9657 171.928 27.9547C171.836 27.9534 171.713 27.8924 171.659 27.8188C170.718 26.5426 169.786 25.26 168.851 23.979C168.832 23.9523 168.807 23.9297 168.774 23.8933C168.476 24.1886 168.192 24.4831 167.894 24.7627C167.689 24.9544 167.674 25.1843 167.677 25.4424C167.688 26.21 167.678 26.9778 167.684 27.7454C167.685 27.9027 167.646 27.9673 167.474 27.9645C166.895 27.9549 166.315 27.9515 165.737 27.9659C165.528 27.9711 165.5 27.8856 165.5 27.7087C165.505 25.7895 165.503 23.8703 165.503 21.9301Z" fill="white"/>
<path d="M126.482 20.8356L127.537 19.3055C126.472 18.3881 124.918 17.8879 123.354 18.0848C121.138 18.6313 120.584 19.3825 120.581 21.3447C120.641 22.5231 121.442 23.4269 123.425 23.8778C124.182 24.0501 125.1 24.1083 125.643 24.7907C125.795 24.9677 125.838 25.654 125.363 25.8932C124.125 26.6245 122.715 25.7998 121.479 24.99L120.225 26.4564C121.14 27.2801 121.819 27.6245 123.18 27.934C126.732 28.4523 127.953 26.2009 127.838 24.99C127.723 22.4246 125.709 22.5413 123.471 21.7749C122.287 21.2746 122.438 20.4467 123.175 20.0313C123.248 19.9904 123.327 19.9618 123.409 19.9444C124.532 19.704 125.307 20.3474 126.482 20.8356Z" fill="white"/>
<path d="M136.771 24.8603C136.355 24.1913 136.148 23.494 136.261 22.7099C136.412 21.6675 136.938 20.8848 137.858 20.3871C138.864 19.8429 140.169 19.9357 141.09 20.6157C141.776 21.1221 142.217 21.7964 142.325 22.6391C142.446 23.5807 142.228 24.4428 141.561 25.1649C140.87 25.9131 140.011 26.2313 139.015 26.1533C138.171 26.0873 137.462 25.7213 136.927 25.0481C136.879 24.9882 136.827 24.9322 136.771 24.8603Z" fill="white"/>
<defs>
<linearGradient id="paint0_linear_5944_79300" x1="16.3519" y1="12.485" x2="6.87732" y2="36.6569" gradientUnits="userSpaceOnUse">
<stop stop-color="#03D1CF" stop-opacity="0.988"/>
<stop offset="1" stop-color="#4E09F8"/>
</linearGradient>
<clipPath id="clip0_5944_79300">
<rect width="85.6641" height="22.1835" fill="white" transform="translate(0 11.9082)"/>
</clipPath>
</defs>
</svg>
